<svg xmlns="http://www.w3.org/2000/svg" xmlns:xlink="http://www.w3.org/1999/xlink" width="1280" height="640" viewBox="0 0 1280 640" role="img" aria-labelledby="title desc">
  <title id="title">Mohiuddin Biswas — Frontend Developer</title>
  <desc id="desc">GitHub profile banner featuring Mohiuddin Biswas and technology icons.</desc>
  <defs>
    <linearGradient id="bg" x1="0" y1="0" x2="1" y2="1"><stop stop-color="#07101f"/><stop offset=".55" stop-color="#10294a"/><stop offset="1" stop-color="#25124b"/></linearGradient>
    <linearGradient id="line" x1="0" y1="0" x2="1" y2="0"><stop stop-color="#22d3ee"/><stop offset="1" stop-color="#a78bfa"/></linearGradient>
    <filter id="glow" x="-40%" y="-40%" width="180%" height="180%"><feGaussianBlur stdDeviation="8" result="b"/><feMerge><feMergeNode in="b"/><feMergeNode in="SourceGraphic"/></feMerge></filter>
    <clipPath id="portraitClip"><rect x="40" y="35" width="420" height="570" rx="34"/></clipPath>
    <pattern id="grid" width="44" height="44" patternUnits="userSpaceOnUse"><path d="M44 0H0V44" fill="none" stroke="#8cc8ff" stroke-opacity=".09"/></pattern>
  </defs>
  <rect width="1280" height="640" fill="url(#bg)"/>
  <rect width="1280" height="640" fill="url(#grid)"/>
  <circle cx="1125" cy="100" r="230" fill="#3b82f6" opacity=".13"/><circle cx="1050" cy="610" r="300" fill="#9333ea" opacity=".14"/>
  <path d="M465 0V640" stroke="#67e8f9" stroke-opacity=".25"/>
  <rect x="40" y="35" width="420" height="570" rx="34" fill="#071321" stroke="#67e8f9" stroke-opacity=".55"/>
  <image x="-18" y="2" width="545" height="655" preserveAspectRatio="xMidYMid slice" xlink:href="mohiuddin-biswas-portrait.png" clip-path="url(#portraitClip)"/>
  <path d="M40 535C165 565 320 565 460 525V605H40Z" fill="#071321" opacity=".44"/>
  <g transform="translate(535 135)">
    <rect width="95" height="8" rx="4" fill="url(#line)"/>
    <text y="82" font-family="Arial,Helvetica,sans-serif" font-size="62" font-weight="700" letter-spacing="-2" fill="#f8fafc">Mohiuddin Biswas</text>
    <text y="133" font-family="Arial,Helvetica,sans-serif" font-size="23" font-weight="700" letter-spacing="5" fill="#67e8f9">FRONTEND DEVELOPER</text>
    <text y="190" font-family="Arial,Helvetica,sans-serif" font-size="21" fill="#cbd5e1">Building modern, responsive web experiences.</text>
    <path d="M0 225H650" stroke="#bae6fd" stroke-opacity=".28"/>
  </g>
  <text x="535" y="412" font-family="Arial,Helvetica,sans-serif" font-size="16" font-weight="700" letter-spacing="3" fill="#94a3b8">TECH STACK</text>
  <!-- Transparent-background technology marks -->
  <g transform="translate(535 445)" font-family="Arial,Helvetica,sans-serif" text-anchor="middle" font-weight="700">
    <g><text x="28" y="37" font-size="33" fill="#f97316">&lt;/&gt;</text><text x="28" y="66" font-size="12" fill="#cbd5e1">HTML</text></g>
    <g transform="translate(86)"><text x="28" y="37" font-size="33" fill="#38bdf8">#</text><text x="28" y="66" font-size="12" fill="#cbd5e1">CSS</text></g>
    <g transform="translate(172)"><text x="28" y="37" font-size="29" fill="#facc15">JS</text><text x="28" y="66" font-size="12" fill="#cbd5e1">JAVASCRIPT</text></g>
    <g transform="translate(278)"><text x="28" y="37" font-size="37" fill="#61dafb">⚛</text><text x="28" y="66" font-size="12" fill="#cbd5e1">REACT</text></g>
    <g transform="translate(364)"><text x="28" y="37" font-size="31" fill="#f8fafc">N</text><text x="28" y="66" font-size="12" fill="#cbd5e1">NEXT.JS</text></g>
    <g transform="translate(450)"><text x="28" y="37" font-size="30" fill="#38bdf8">〰</text><text x="28" y="66" font-size="12" fill="#cbd5e1">TAILWIND</text></g>
    <g transform="translate(555)"><text x="28" y="37" font-size="31" fill="#a78bfa">B</text><text x="28" y="66" font-size="12" fill="#cbd5e1">BOOTSTRAP</text></g>
  </g>
  <g transform="translate(535 555)" font-family="Arial,Helvetica,sans-serif" text-anchor="middle" font-weight="700">
    <g><text x="28" y="28" font-size="27" fill="#68a063">⬡</text><text x="28" y="55" font-size="12" fill="#cbd5e1">NODE.JS</text></g>
    <g transform="translate(100)"><text x="28" y="29" font-size="24" fill="#e5e7eb">EX</text><text x="28" y="55" font-size="12" fill="#cbd5e1">EXPRESS</text></g>
    <g transform="translate(200)"><text x="28" y="29" font-size="26" fill="#22c55e">M</text><text x="28" y="55" font-size="12" fill="#cbd5e1">MONGODB</text></g>
    <g transform="translate(310)"><text x="28" y="29" font-size="27" fill="#f97316">◆</text><text x="28" y="55" font-size="12" fill="#cbd5e1">GIT</text></g>
    <g transform="translate(410)"><text x="28" y="29" font-size="28" fill="#f8fafc">◉</text><text x="28" y="55" font-size="12" fill="#cbd5e1">GITHUB</text></g>
  </g>
  <circle cx="1210" cy="535" r="5" fill="#22d3ee" filter="url(#glow)"/><circle cx="1175" cy="120" r="5" fill="#a78bfa" filter="url(#glow)"/>
</svg>
